<svg t="1683475797714" class="icon" viewBox="0 0 1024 1024" version="1.1" xmlns="http://www.w3.org/2000/svg" p-id="737" width="200" height="200"><path d="M920.268 450.235c-18.963-5.779-38.829 4.876-44.608 23.839-11.017 36.481-26.368 71.156-45.15 102.581-65.919 109.805-181.141 172.834-316.049 172.834-134.908 0-250.131-63.029-316.049-173.014-18.963-31.424-34.133-65.919-45.15-102.4-5.779-18.782-25.645-29.618-44.608-23.839-18.782 5.779-29.618 25.645-23.839 44.608 12.823 42.080 30.341 81.992 52.193 118.473 72.059 120.099 198.118 195.409 341.695 206.245v168.68c0 19.685 16.073 35.759 35.759 35.759s35.759-16.073 35.759-35.759v-168.68c143.577-10.836 269.455-85.965 341.695-206.064 21.853-36.481 39.551-76.394 52.374-118.654 5.599-18.963-5.057-39.010-24.020-44.608v0z" p-id="738" fill="#cdcdcd"></path><path d="M936.703 179.516c-10.836-25.284-35.759-42.080-63.932-42.622l-11.017-0.181c-63.571 0-121.724 19.144-173.014 40.454-44.789-76.935-86.507-128.226-130.032-160.011-2.528-2.167-5.057-4.154-7.946-5.96-19.866-12.642-44.428-14.629-66.099-5.599-6.14 2.528-11.92 6.14-17.157 10.294-43.344 31.244-86.507 83.618-131.477 159.65-50.929-20.408-107.999-38.829-169.402-38.829l-10.836 0.181c-27.812 0.542-52.735 17.338-63.571 42.622-24.562 57.792-34.675 126.962-29.077 199.743 1.445 18.782 17.157 33.050 35.578 33.050 0.903 0 1.806 0 2.709-0.181 19.685-1.445 34.314-18.602 32.869-38.287-4.696-61.043 3.431-118.293 23.478-165.61l9.211-0.181c59.417 0 116.667 22.394 169.944 45.511 16.796 7.224 36.481 0.542 45.331-15.351 45.872-82.353 87.771-136.353 127.684-164.887 0.903-0.542 1.084-1.445 1.987-2.167 1.084 1.084 2.167 1.987 3.431 2.89 39.732 28.535 81.27 82.895 126.781 165.79 8.849 16.254 28.896 22.936 45.692 15.532 51.471-22.756 111.611-47.137 173.556-47.137l9.752 0.181c18.782 44.608 27.271 98.607 24.020 156.038-1.084 19.685 14.087 36.481 33.772 37.565 19.505 1.445 36.481-14.087 37.565-33.772 3.793-68.808-6.502-134.005-29.799-188.727v0z" p-id="739" fill="#cdcdcd"></path><path d="M906.362 791.026c-11.739-15.893-34.133-19.144-50.026-7.585l-238.030 175.904c-15.893 11.739-19.144 34.133-7.585 50.026 7.043 9.391 17.879 14.448 28.715 14.448 7.405 0 14.809-2.348 21.13-7.043l238.030-175.904c16.073-11.558 19.505-33.953 7.766-49.846v0z" p-id="740" fill="#cdcdcd"></path><path d="M410.796 959.345l-238.211-175.904c-15.893-11.739-38.287-8.308-50.026 7.585s-8.308 38.287 7.585 50.026l238.030 175.904c6.321 4.696 13.906 7.043 21.13 7.043 11.017 0 21.672-5.057 28.715-14.448 11.92-16.073 8.488-38.468-7.224-50.207v0z" p-id="741" fill="#cdcdcd"></path></svg>
